#N canvas 6 3 794 567 10;
#X declare -lib mrpeach;
#X obj -7 453 dac~;
#X obj 62 227 osc~;
#X obj 244 134 noise~;
#X obj 237 330 throw~ audiokit;
#X obj 28 383 catch~ audiokit;
#X obj 244 252 *~;
#X obj 62 303 throw~ audiokit;
#X obj 263 229 line~;
#X obj 438 250 osc~;
#X obj 439 290 throw~ audiokit;
#X obj 438 224 +~ 900;
#X obj 439 202 *~ 100;
#X obj 439 270 *~;
#X obj 63 180 *~ 20;
#X obj 63 203 +~ 40;
#X obj 62 255 *~;
#X obj 115 135 vline~;
#X obj 510 149 vline~;
#X msg 510 127 1 10 \, 0 40 10;
#X floatatom 116 181 5 0 0 0 - - -;
#X floatatom 116 203 5 0 0 0 - - -;
#X floatatom 498 200 5 0 0 0 - - -;
#X floatatom 498 225 5 0 0 0 - - -;
#X floatatom 316 157 5 0 0 0 - - -;
#X obj 47 15 import mrpeach;
#X obj 221 500 packOSC;
#X floatatom 247 423 5 0 0 0 - - -;
#X obj 340 558 udpsend;
#X msg 333 531 disconnect;
#X obj 340 593 tgl 15 0 empty empty 1=connected 20 8 0 8 -4034 -257985
-1 1 1;
#X msg 311 509 connect 127.0.0.1 12000;
#X obj 333 449 packOSC;
#X floatatom 359 372 5 0 0 0 - - -;
#X msg 224 467 send /env1 \$1;
#X msg 336 416 send /env2 \$1;
#X obj 244 156 lop~ 1000;
#X msg 263 209 1 \, 0 25;
#X obj 189 53 random 100;
#X obj 137 74 b;
#X obj 241 21 tgl 15 0 empty empty empty 17 7 0 10 -262144 -1 -1 1
1;
#X obj 336 53 random 100;
#X obj 336 76 moses 25;
#X obj 284 74 b;
#X obj 228 405 env~ 1024;
#X obj 340 354 env~ 1024;
#X obj 277 22 metro 500;
#X msg 115 112 1 5 \, 0 250 10;
#X obj 61 279 rev3~ 100 65 3000 20;
#X obj 243 274 rev3~ 100 65 3000 20;
#X obj 189 76 moses 50;
#X connect 1 0 15 0;
#X connect 2 0 35 0;
#X connect 4 0 0 0;
#X connect 4 0 0 1;
#X connect 5 0 48 0;
#X connect 7 0 5 1;
#X connect 8 0 12 0;
#X connect 10 0 8 0;
#X connect 11 0 10 0;
#X connect 12 0 9 0;
#X connect 13 0 14 0;
#X connect 14 0 1 0;
#X connect 15 0 47 0;
#X connect 16 0 13 0;
#X connect 16 0 15 1;
#X connect 17 0 11 0;
#X connect 17 0 12 1;
#X connect 18 0 17 0;
#X connect 19 0 13 1;
#X connect 20 0 14 1;
#X connect 21 0 11 1;
#X connect 22 0 10 1;
#X connect 23 0 35 1;
#X connect 25 0 27 0;
#X connect 27 0 29 0;
#X connect 28 0 27 0;
#X connect 30 0 27 0;
#X connect 31 0 27 0;
#X connect 33 0 25 0;
#X connect 34 0 31 0;
#X connect 35 0 5 0;
#X connect 36 0 7 0;
#X connect 37 0 49 0;
#X connect 38 0 46 0;
#X connect 39 0 45 0;
#X connect 40 0 41 0;
#X connect 41 0 42 0;
#X connect 42 0 36 0;
#X connect 43 0 26 0;
#X connect 43 0 33 0;
#X connect 44 0 32 0;
#X connect 44 0 34 0;
#X connect 45 0 37 0;
#X connect 45 0 40 0;
#X connect 46 0 16 0;
#X connect 47 0 6 0;
#X connect 47 0 43 0;
#X connect 48 0 3 0;
#X connect 48 0 44 0;
#X connect 49 0 38 0;
