#N canvas 0 0 528 562 10;
#X declare -lib mrpeach;
#X text 202 226 1 window size in samples (1024 default);
#X text 202 245 2 period in samples per analysis (window/2 default)
;
#X obj 107 512 tgl 15 0 empty empty empty 17 7 0 10 -262144 -1 -1 1
1;
#X msg 149 460 disconnect;
#X text 139 416 Local send;
#X msg 141 436 connect 127.0.0.1 8600;
#X msg 107 338 send /env \$1;
#X obj 107 209 *~;
#X obj 177 105 vsl 15 128 0 1 0 0 empty empty empty 0 -9 0 10 -262144
-1 -1 12700 1;
#X obj 116 183 lop~ 10;
#X obj 214 355 loadbang;
#X obj 103 66 import mrpeach;
#X obj 107 360 packOSC;
#X obj 107 489 udpsend;
#X obj 108 157 adc~;
#X obj 107 313 line;
#X msg 107 289 \$1 500;
#X obj 107 239 env~ 1024 512;
#X obj 107 269 average 10;
#X text 5 155 entrée micro ->;
#X text 31 238 analyse ->;
#X text 88 268 ->;
#X text 90 313 ->;
#X text 49 290 lissage;
#X text 89 341 ->;
#X text 90 488 ->;
#X text 69 406 envoi;
#X msg 214 384 \; pd dsp 1 \;;
#X text 281 435 envoi en local sur le port 8600;
#X text 201 65 librairie OSC;
#X connect 3 0 13 0;
#X connect 5 0 13 0;
#X connect 6 0 12 0;
#X connect 7 0 17 0;
#X connect 8 0 9 0;
#X connect 9 0 7 1;
#X connect 10 0 5 0;
#X connect 10 0 27 0;
#X connect 12 0 13 0;
#X connect 13 0 2 0;
#X connect 14 0 7 0;
#X connect 15 0 6 0;
#X connect 16 0 15 0;
#X connect 17 0 18 0;
#X connect 18 0 16 0;
