#N canvas 115 0 794 567 10;
#X declare -lib mrpeach;
#X obj -7 453 dac~;
#X obj 62 227 osc~;
#X obj 244 134 noise~;
#X obj 244 295 throw~ audiokit;
#X obj 28 383 catch~ audiokit;
#X obj 244 252 *~;
#X obj 62 303 throw~ audiokit;
#X obj 263 229 line~;
#X msg 263 209 1 \, 0 50;
#X obj 438 250 osc~;
#X obj 439 290 throw~ audiokit;
#X obj 244 156 lop~ 400;
#X obj 438 224 +~ 900;
#X obj 439 202 *~ 100;
#X obj 439 270 *~;
#X obj 63 180 *~ 20;
#X obj 63 203 +~ 40;
#X obj 62 255 *~;
#X obj 115 135 vline~;
#X msg 115 112 1 5 \, 0 250 10;
#X obj 510 149 vline~;
#X msg 510 127 1 10 \, 0 40 10;
#X floatatom 116 181 5 0 0 0 - - -;
#X floatatom 116 203 5 0 0 0 - - -;
#X floatatom 498 200 5 0 0 0 - - -;
#X floatatom 498 225 5 0 0 0 - - -;
#X floatatom 316 157 5 0 0 0 - - -;
#X obj 47 15 import mrpeach;
#X obj 221 500 packOSC;
#X obj 228 405 env~ 512;
#X floatatom 247 423 5 0 0 0 - - -;
#X obj 340 558 udpsend;
#X msg 333 531 disconnect;
#X obj 340 593 tgl 15 0 empty empty 1=connected 20 8 0 8 -4034 -257985
-1 1 1;
#X msg 224 467 send /env \$1;
#X msg 311 509 connect 127.0.0.1 12000;
#X connect 1 0 17 0;
#X connect 2 0 11 0;
#X connect 4 0 0 0;
#X connect 4 0 0 1;
#X connect 5 0 3 0;
#X connect 7 0 5 1;
#X connect 8 0 7 0;
#X connect 9 0 14 0;
#X connect 11 0 5 0;
#X connect 12 0 9 0;
#X connect 13 0 12 0;
#X connect 14 0 10 0;
#X connect 15 0 16 0;
#X connect 16 0 1 0;
#X connect 17 0 6 0;
#X connect 17 0 29 0;
#X connect 18 0 15 0;
#X connect 18 0 17 1;
#X connect 19 0 18 0;
#X connect 20 0 13 0;
#X connect 20 0 14 1;
#X connect 21 0 20 0;
#X connect 22 0 15 1;
#X connect 23 0 16 1;
#X connect 24 0 13 1;
#X connect 25 0 12 1;
#X connect 26 0 11 1;
#X connect 28 0 31 0;
#X connect 29 0 30 0;
#X connect 29 0 34 0;
#X connect 31 0 33 0;
#X connect 32 0 31 0;
#X connect 34 0 28 0;
#X connect 35 0 31 0;
